<svg width="127" height="48" viewBox="0 0 127 48" fill="none" xmlns="http://www.w3.org/2000/svg">
<path d="M3.31 28.903L18.06 13.087L14.749 10L0 25.816L3.31 28.903ZM5.792 39L20.54 23.184L17.23 20.097L2.482 35.913L5.792 39ZM37.053 20.784C36.6683 20.3029 36.1742 19.9207 35.612 19.669C35.018 19.393 34.446 19.255 33.894 19.255C33.61 19.255 33.322 19.28 33.03 19.33C32.737 19.38 32.474 19.477 32.24 19.619C32.006 19.761 31.81 19.945 31.65 20.17C31.492 20.396 31.413 20.684 31.413 21.035C31.413 21.335 31.475 21.587 31.601 21.787C31.726 21.987 31.91 22.163 32.152 22.314C32.394 22.464 32.682 22.602 33.017 22.727C33.351 22.853 33.727 22.982 34.145 23.116C34.747 23.316 35.374 23.538 36.025 23.78C36.6618 24.0141 37.2613 24.3391 37.805 24.745C38.34 25.146 38.783 25.644 39.134 26.237C39.484 26.83 39.66 27.57 39.66 28.456C39.66 29.475 39.472 30.356 39.096 31.1C38.7381 31.8221 38.2195 32.4526 37.58 32.943C36.9273 33.4364 36.1874 33.8022 35.399 34.021C34.5755 34.2553 33.7232 34.3731 32.867 34.371C31.597 34.371 30.368 34.151 29.182 33.708C27.995 33.265 27.009 32.634 26.223 31.815L29.031 28.957C29.466 29.492 30.038 29.939 30.748 30.298C31.458 30.658 32.165 30.838 32.867 30.838C33.184 30.838 33.493 30.804 33.794 30.737C34.095 30.67 34.358 30.561 34.584 30.411C34.809 30.261 34.989 30.06 35.123 29.809C35.257 29.559 35.323 29.258 35.323 28.907C35.323 28.573 35.24 28.288 35.073 28.054C34.8791 27.796 34.6361 27.5788 34.358 27.415C33.9942 27.1978 33.6075 27.0214 33.205 26.889C32.745 26.73 32.223 26.559 31.638 26.375C31.0698 26.1911 30.5131 25.9734 29.971 25.723C29.4387 25.4796 28.9481 25.1539 28.517 24.758C28.0829 24.3542 27.7335 23.8681 27.489 23.328C27.23 22.769 27.101 22.088 27.101 21.286C27.101 20.3 27.301 19.456 27.702 18.754C28.0911 18.0653 28.6313 17.4738 29.282 17.024C29.9521 16.5646 30.6993 16.2293 31.488 16.034C32.2989 15.8259 33.1328 15.7204 33.97 15.72C34.972 15.72 35.996 15.904 37.04 16.272C38.085 16.64 39 17.182 39.786 17.902L37.053 20.784ZM46.73 24.52V29.283C46.73 29.868 46.843 30.306 47.068 30.599C47.294 30.891 47.699 31.038 48.284 31.038C48.484 31.038 48.698 31.021 48.924 30.988C49.1175 30.9633 49.3069 30.9129 49.487 30.838L49.537 33.845C49.254 33.945 48.894 34.033 48.46 34.109C48.0293 34.1836 47.5931 34.2211 47.156 34.221C46.32 34.221 45.618 34.117 45.05 33.908C44.482 33.699 44.027 33.398 43.684 33.006C43.3343 32.6 43.0812 32.12 42.944 31.602C42.7874 31.0089 42.7117 30.3974 42.719 29.784V24.52H40.713V21.436H42.693V18.152H46.73V21.436H49.663V24.52H46.73ZM58.964 28.48H58.437C57.986 28.48 57.531 28.501 57.071 28.543C56.611 28.585 56.201 28.665 55.843 28.781C55.5109 28.882 55.2065 29.0579 54.953 29.295C54.719 29.521 54.602 29.818 54.602 30.185C54.602 30.419 54.656 30.62 54.765 30.787C54.873 30.954 55.011 31.087 55.178 31.188C55.345 31.288 55.538 31.359 55.755 31.401C55.972 31.443 56.181 31.464 56.382 31.464C57.217 31.464 57.856 31.234 58.299 30.774C58.742 30.314 58.964 29.692 58.964 28.907V28.481V28.48ZM51.418 23.14C52.1536 22.4381 53.0295 21.9 53.988 21.561C54.9483 21.2133 55.9617 21.0353 56.983 21.035C58.036 21.035 58.926 21.165 59.653 21.424C60.38 21.683 60.969 22.084 61.42 22.627C61.872 23.17 62.202 23.855 62.41 24.683C62.62 25.51 62.724 26.492 62.724 27.628V33.921H58.964V32.592H58.888C58.571 33.11 58.09 33.512 57.447 33.795C56.787 34.0824 56.0738 34.2276 55.354 34.221C54.8294 34.2183 54.3072 34.1511 53.799 34.021C53.2756 33.8921 52.7792 33.6714 52.333 33.369C51.8811 33.0581 51.5079 32.6462 51.243 32.166C50.958 31.664 50.816 31.046 50.816 30.311C50.816 29.408 51.063 28.681 51.556 28.13C52.049 27.578 52.684 27.152 53.461 26.851C54.238 26.551 55.103 26.35 56.056 26.25C57.008 26.15 57.936 26.099 58.838 26.099V25.899C58.838 25.28 58.621 24.825 58.187 24.532C57.752 24.24 57.217 24.093 56.582 24.093C55.997 24.093 55.433 24.219 54.89 24.47C54.3823 24.6972 53.9128 25.0014 53.498 25.372L51.418 23.141V23.14ZM70.106 24.52V29.283C70.106 29.868 70.218 30.306 70.444 30.599C70.669 30.891 71.074 31.038 71.66 31.038C71.86 31.038 72.073 31.021 72.299 30.988C72.525 30.954 72.713 30.904 72.863 30.838L72.913 33.845C72.629 33.945 72.27 34.033 71.835 34.109C71.4047 34.1836 70.9687 34.221 70.532 34.221C69.696 34.221 68.994 34.117 68.426 33.908C67.858 33.699 67.402 33.398 67.06 33.006C66.7102 32.6001 66.4571 32.12 66.32 31.602C66.1631 31.009 66.0871 30.3974 66.094 29.784V24.52H64.09V21.436H66.07V18.152H70.107V21.436H73.04V24.52H70.107H70.106ZM79.431 17.45C79.431 17.768 79.368 18.064 79.243 18.34C79.1233 18.6082 78.9532 18.8509 78.742 19.055C78.2889 19.4756 77.6932 19.7086 77.075 19.707C76.406 19.707 75.846 19.485 75.395 19.042C75.1781 18.8379 75.006 18.5911 74.8895 18.317C74.7729 18.043 74.7146 17.7478 74.718 17.45C74.718 17.15 74.777 16.861 74.894 16.585C75.011 16.31 75.178 16.071 75.395 15.871C75.612 15.671 75.863 15.507 76.147 15.382C76.431 15.257 76.74 15.194 77.075 15.194C77.392 15.194 77.697 15.252 77.99 15.369C78.282 15.486 78.533 15.645 78.742 15.846C78.951 16.046 79.118 16.285 79.243 16.56C79.369 16.836 79.431 17.133 79.431 17.45ZM75.02 33.92V21.437H79.131V33.922H75.02V33.92ZM90.293 25.472C90.0391 25.1559 89.712 24.9063 89.34 24.745C88.9555 24.5652 88.5365 24.4713 88.112 24.47C87.677 24.47 87.284 24.557 86.933 24.733C86.5882 24.9039 86.2814 25.1427 86.031 25.435C85.781 25.727 85.584 26.065 85.441 26.45C85.2977 26.8434 85.2259 27.2593 85.229 27.678C85.229 28.113 85.296 28.522 85.429 28.907C85.5569 29.2809 85.7574 29.6258 86.019 29.922C86.277 30.215 86.587 30.444 86.946 30.612C87.306 30.779 87.711 30.862 88.162 30.862C88.58 30.862 88.993 30.782 89.402 30.624C89.812 30.465 90.142 30.235 90.392 29.934L92.674 32.717C92.156 33.219 91.488 33.611 90.669 33.895C89.8298 34.1828 88.9481 34.3272 88.061 34.322C87.123 34.3296 86.1905 34.1767 85.304 33.87C84.4822 33.5875 83.727 33.1396 83.085 32.554C82.4512 31.9673 81.9473 31.2543 81.606 30.461C81.246 29.642 81.067 28.715 81.067 27.678C81.067 26.658 81.247 25.74 81.607 24.921C81.9481 24.1278 82.4515 23.4148 83.085 22.828C83.7284 22.2409 84.4829 21.7886 85.304 21.498C86.6093 21.0322 88.0137 20.9157 89.378 21.16C89.821 21.244 90.247 21.357 90.656 21.499C91.066 21.641 91.442 21.816 91.784 22.025C92.127 22.235 92.424 22.464 92.674 22.715L90.293 25.472ZM105.384 33.921L98.791 25.748H98.741V33.921H94.529V16.17H98.741V23.39H98.816L105.159 16.17H110.523L102.877 24.343L110.975 33.92H105.384V33.921ZM116.59 17.451C116.59 17.768 116.528 18.064 116.402 18.341C116.282 18.6089 116.112 18.8513 115.901 19.055C115.448 19.4752 114.852 19.7082 114.234 19.707C113.565 19.707 113.005 19.485 112.554 19.042C112.337 18.8379 112.165 18.591 112.049 18.317C111.932 18.043 111.874 17.7478 111.877 17.45C111.877 17.15 111.936 16.861 112.053 16.585C112.17 16.31 112.337 16.071 112.554 15.871C112.771 15.671 113.022 15.507 113.306 15.382C113.59 15.257 113.899 15.194 114.234 15.194C114.852 15.1928 115.448 15.4258 115.901 15.846C116.11 16.046 116.277 16.285 116.402 16.56C116.528 16.836 116.59 17.133 116.59 17.45V17.451ZM112.178 33.921V21.436H116.289V33.921H112.178ZM124.011 24.52V29.283C124.011 29.868 124.123 30.306 124.349 30.599C124.575 30.891 124.98 31.038 125.565 31.038C125.765 31.038 125.979 31.021 126.204 30.988C126.398 30.9635 126.588 30.9131 126.768 30.838L126.818 33.845C126.534 33.945 126.175 34.033 125.74 34.109C125.31 34.1836 124.874 34.2211 124.437 34.221C123.601 34.221 122.899 34.117 122.331 33.908C121.763 33.699 121.307 33.398 120.965 33.006C120.615 32.6 120.362 32.1199 120.225 31.602C120.069 31.0089 119.993 30.3974 120 29.784V24.52H117.994V21.436H119.975V18.152H124.011V21.436H126.944V24.52H124.011Z" fill="#D1D5DB"/>
</svg>
