<svg width="138" height="48" viewBox="0 0 138 48" fill="none" xmlns="http://www.w3.org/2000/svg">
<path fill-rule="evenodd" clip-rule="evenodd" d="M37.529 12.273C37.529 8.25617 34.3002 5.00027 30.3165 5C26.3327 5.00027 23.103 8.25617 23.103 12.273C23.0995 14.1603 23.8291 15.9752 25.138 17.335L23.288 20.144L17.34 10.955C17.2362 10.7948 17.0927 10.6641 16.9234 10.5757C16.7542 10.4873 16.565 10.4442 16.3742 10.4505C16.1833 10.4569 15.9974 10.5125 15.8344 10.6119C15.6714 10.7113 15.5369 10.8512 15.444 11.018L5.09098 29.58H1.11098C0.497976 29.58 0.000976562 30.08 0.000976562 30.698C0.000976562 31.316 0.497977 31.816 1.10998 31.816H37.906C37.9173 31.8162 37.9286 31.8162 37.94 31.816H42.552C43.165 31.816 43.662 31.316 43.662 30.698C43.662 30.08 43.165 29.58 42.552 29.58H38.572L32.758 19.118C34.1596 18.6046 35.3693 17.6724 36.2228 16.4478C37.0764 15.2232 37.5324 13.7657 37.529 12.273ZM29.395 29.58L24.607 22.183L28.572 16.162L36.029 29.58H29.395ZM16.48 13.72L26.747 29.58H7.63498L16.48 13.72ZM34.4174 15.3861C35.0899 14.4878 35.4519 13.3951 35.449 12.273C35.449 9.414 33.151 7.097 30.316 7.097C27.481 7.097 25.182 9.414 25.182 12.273C25.1797 13.4575 25.5835 14.6071 26.326 15.53L27.728 13.4C27.8327 13.2411 27.9767 13.1119 28.146 13.0249C28.3152 12.9379 28.5041 12.8959 28.6943 12.9032C28.8844 12.9104 29.0695 12.9666 29.2317 13.0662C29.3939 13.1658 29.5276 13.3056 29.62 13.472L31.721 17.253C32.7985 16.9397 33.7449 16.2845 34.4174 15.3861Z" fill="#D1D5DB"/>
<path d="M8.51297 36.29C8.51297 35.673 9.00897 35.173 9.61997 35.173H34.041C34.652 35.173 35.148 35.673 35.148 36.29C35.148 36.906 34.652 37.406 34.04 37.406H9.61997C9.00897 37.406 8.51297 36.907 8.51297 36.29Z" fill="#D1D5DB"/>
<path d="M17.023 41.882C17.023 41.264 17.52 40.763 18.133 40.763H25.528C26.141 40.763 26.638 41.264 26.638 41.882C26.638 42.5 26.141 43 25.529 43H18.133C17.52 43 17.023 42.499 17.023 41.882Z" fill="#D1D5DB"/>
<path fill-rule="evenodd" clip-rule="evenodd" d="M120.027 21.871C119.045 20.621 117.574 19.948 115.68 19.948C112.696 19.948 109.631 22.476 109.631 26.734C109.631 30.992 112.696 33.52 115.68 33.52C117.574 33.52 119.045 32.86 120.027 31.597V32.655C120.027 35.1 118.555 36.584 115.885 36.584C114.291 36.584 112.778 36.061 111.457 35.251L110.421 37.683C111.797 38.672 113.936 39.208 115.885 39.208C120.245 39.208 122.888 36.667 122.888 32.531V20.291H120.027V21.871ZM112.56 26.734C112.56 24.509 114.004 22.654 116.415 22.654C118.718 22.654 120.272 24.427 120.272 26.734C120.272 29.042 118.718 30.814 116.415 30.814C114.004 30.814 112.56 28.947 112.56 26.734Z" fill="#D1D5DB"/>
<path fill-rule="evenodd" clip-rule="evenodd" d="M104.341 21.885C103.442 20.717 102.093 19.948 100.24 19.948C96.59 19.948 93.714 22.846 93.714 26.871C93.714 30.896 96.589 33.795 100.24 33.795C102.094 33.795 103.442 33.04 104.341 31.872V33.452H107.189V20.292H104.341V21.885ZM96.643 26.871C96.643 24.564 98.129 22.654 100.581 22.654C102.938 22.654 104.519 24.467 104.519 26.871C104.519 29.275 102.938 31.089 100.581 31.089C98.129 31.089 96.643 29.179 96.643 26.871Z" fill="#D1D5DB"/>
<path fill-rule="evenodd" clip-rule="evenodd" d="M138 26.858C137.987 22.751 135.48 19.948 131.828 19.948C127.986 19.948 125.329 22.751 125.329 26.872C125.329 31.048 128.095 33.796 132.005 33.796C133.981 33.796 135.779 33.316 137.373 31.942L135.956 29.894C134.88 30.759 133.49 31.282 132.182 31.282C130.329 31.282 128.681 30.292 128.299 27.929H137.946C137.973 27.6 138 27.229 138 26.858ZM128.313 25.745C128.613 23.822 129.743 22.503 131.773 22.503C133.586 22.503 134.771 23.698 135.084 25.745H128.313Z" fill="#D1D5DB"/>
<path d="M64.3325 27.9558L58.787 14.2191H54.059V33.4521H57.139V17.7771L62.71 31.5701H65.953L71.526 17.6261V33.4521H74.606V14.2191H69.877L64.3325 27.9558Z" fill="#D1D5DB"/>
<path d="M81.204 20.2921V33.4521H78.343V20.2921H81.204Z" fill="#D1D5DB"/>
<path d="M93.386 20.3191C93.386 20.3191 93.3859 20.319 93.386 20.3191V20.3191Z" fill="#D1D5DB"/>
<path d="M91.192 19.9491C92.0639 19.9491 92.732 20.0581 93.386 20.3191L92.704 23.1611C92.105 22.8451 91.233 22.6801 90.538 22.6801C88.726 22.6801 87.432 23.9721 87.432 26.2101V33.4501H84.584V20.2901H87.404V21.7751C88.262 20.5251 89.598 19.9491 91.192 19.9491Z" fill="#D1D5DB"/>
<path d="M79.759 13.7111C80.89 13.7111 81.776 14.6041 81.776 15.7441C81.776 16.8841 80.89 17.7501 79.759 17.7501C78.629 17.7501 77.769 16.8841 77.769 15.7441C77.769 14.6041 78.629 13.7111 79.759 13.7111Z" fill="#D1D5DB"/>
</svg>
