<svg width="106" height="48" viewBox="0 0 106 48" fill="none" xmlns="http://www.w3.org/2000/svg">
<g clip-path="url(#clip0_3506_36542)">
<path fill-rule="evenodd" clip-rule="evenodd" d="M0.5 10L18.5 4V13.5L24.5 11.5V43L6.5 37V31.5L0.5 29.5V10ZM18.5 35.5L8.5 32.167V35.56L22.5 40.225V14.275L18.5 15.608V35.5Z" fill="#D1D5DB"/>
<path d="M43.4 31V20.451H39.89V17.058H51.376V20.45H47.846V31H43.4Z" fill="#D1D5DB"/>
<path d="M59.981 31.254C55.905 31.254 53.605 29.226 53.605 25.248V17.058H58.011V25.073C58.011 26.886 58.401 27.783 59.981 27.783C61.541 27.783 61.931 26.886 61.931 25.053V17.058H66.377V25.209C66.377 29.401 63.881 31.254 59.981 31.254Z" fill="#D1D5DB"/>
<path fill-rule="evenodd" clip-rule="evenodd" d="M69.465 31V17.058H75.023C79.04 17.058 80.756 18.852 80.756 21.835V21.913C80.756 24.819 78.826 26.457 75.218 26.457H73.872V31H69.465ZM74.788 23.493H73.872V20.353H74.808C75.958 20.353 76.563 20.783 76.563 21.855V21.933C76.563 22.966 75.958 23.493 74.788 23.493Z" fill="#D1D5DB"/>
<path d="M83.063 17.058V31H92.56V27.588H87.49V17.058H83.063Z" fill="#D1D5DB"/>
<path d="M95.062 31V17.058H104.968V20.451H99.469V22.421H103.837V25.521H99.469V27.607H105.28V31H95.062Z" fill="#D1D5DB"/>
</g>
<defs>
<clipPath id="clip0_3506_36542">
<rect width="105" height="48" fill="white" transform="translate(0.5)"/>
</clipPath>
</defs>
</svg>
