<svg width="158" height="48" viewBox="0 0 158 48" fill="none" xmlns="http://www.w3.org/2000/svg">
<g clip-path="url(#clip0_3506_36551)">
<path d="M19.8344 37.3232C20.0947 37.5838 20.4477 37.7304 20.816 37.731C21.567 37.731 22.203 37.093 22.203 36.34V11.37C22.203 11.0017 22.0568 10.6484 21.7966 10.3878C21.5363 10.1272 21.1833 9.98051 20.815 9.97998C20.035 9.97998 19.428 10.617 19.428 11.37V36.341C19.428 36.7093 19.5742 37.0625 19.8344 37.3232Z" fill="#D1D5DB"/>
<path d="M8.383 25.247H15.033L15.034 25.246C15.4027 25.246 15.7562 25.0995 16.0169 24.8389C16.2776 24.5782 16.424 24.2246 16.424 23.856C16.424 23.4873 16.2776 23.1338 16.0169 22.8731C15.7562 22.6124 15.4027 22.466 15.034 22.466H8.384C7.603 22.466 6.996 23.074 6.996 23.857C6.996 24.2251 7.14204 24.5782 7.40206 24.8388C7.66209 25.0994 8.01487 25.2462 8.383 25.247Z" fill="#D1D5DB"/>
<path d="M26.598 25.247H33.276C34.028 25.247 34.635 24.638 34.635 23.856C34.635 23.4879 34.489 23.1348 34.2289 22.8742C33.9689 22.6136 33.6161 22.4668 33.248 22.466H26.598C25.817 22.466 25.21 23.074 25.21 23.857C25.21 24.2253 25.3562 24.5785 25.6164 24.8392C25.8767 25.0998 26.2297 25.2465 26.598 25.247Z" fill="#D1D5DB"/>
<path fill-rule="evenodd" clip-rule="evenodd" d="M0 23.856C0 35.356 9.338 44.712 20.816 44.712C32.294 44.712 41.632 35.356 41.632 23.856C41.632 12.356 32.294 3 20.816 3C9.338 3 0 12.356 0 23.856ZM2.776 23.856C2.776 13.891 10.871 5.781 20.816 5.781C30.762 5.781 38.856 13.891 38.856 23.856C38.856 33.821 30.762 41.931 20.816 41.931C10.871 41.931 2.776 33.821 2.776 23.856Z" fill="#D1D5DB"/>
<path d="M55.423 15.687V18.178H59.47V32.053H62.304V18.178H66.38V15.687H55.423Z" fill="#D1D5DB"/>
<path d="M72.191 22.639C72.6369 22.6382 73.082 22.677 73.521 22.755V20.235L73.5019 20.2331C73.2192 20.2047 72.9335 20.176 72.51 20.176C70.977 20.176 69.82 21.191 69.3 22.176H69.242V20.554H66.611V32.024H69.301V26.231C69.301 23.827 70.37 22.639 72.191 22.639Z" fill="#D1D5DB"/>
<path fill-rule="evenodd" clip-rule="evenodd" d="M86.416 32.024V20.553H83.814V22.117H83.756C83.062 21.219 81.905 20.206 79.997 20.206C76.875 20.206 74.302 22.639 74.302 26.289C74.302 30.402 77.222 32.459 79.795 32.459C81.703 32.459 82.947 31.561 83.727 30.576H83.785V32.024H86.416ZM83.9 26.346C83.9 28.548 82.252 30.084 80.489 30.084C78.118 30.084 77.019 28.2 77.019 26.289C77.019 24.406 78.147 22.494 80.518 22.494C82.397 22.494 83.9 24.029 83.9 26.346Z" fill="#D1D5DB"/>
<path d="M92.17 20.553H89.51L89.509 32.053H92.198V25.97C92.198 23.74 93.354 22.552 95.031 22.552C96.564 22.552 97.488 23.594 97.488 25.564V32.024H100.178V25.42C100.178 21.741 98.096 20.177 95.725 20.177C94.453 20.177 93.123 20.698 92.227 22.002H92.17V20.553Z" fill="#D1D5DB"/>
<path d="M106.769 22.118C107.55 22.118 108.186 22.668 108.302 23.508L110.73 23.507C110.441 21.625 109.14 20.177 106.682 20.177C104.254 20.177 102.779 21.567 102.779 23.45C102.779 25.246 103.878 26.318 106.018 27.013C107.926 27.65 108.417 28.201 108.417 29.069C108.417 29.852 107.839 30.489 106.827 30.489C105.642 30.489 105.063 29.765 104.948 28.809H102.461C102.664 30.952 104.023 32.459 106.769 32.459C109.4 32.459 110.99 30.981 110.99 28.867C110.99 27.245 110.123 25.97 107.665 25.188C105.671 24.522 105.324 24.029 105.324 23.334C105.324 22.697 105.844 22.118 106.769 22.118Z" fill="#D1D5DB"/>
<path d="M116.31 15.281H113.332V18.004H116.31V15.281Z" fill="#D1D5DB"/>
<path d="M116.165 20.553H113.477V32.053H116.165V20.553Z" fill="#D1D5DB"/>
<path d="M122.93 22.118C123.711 22.118 124.347 22.668 124.463 23.508L126.891 23.507C126.602 21.625 125.301 20.177 122.844 20.177C120.415 20.177 118.941 21.567 118.941 23.45C118.941 25.246 120.039 26.318 122.179 27.013C124.087 27.65 124.578 28.201 124.578 29.069C124.578 29.852 124 30.489 122.988 30.489C121.803 30.489 121.225 29.765 121.109 28.809H118.623C118.825 30.952 120.184 32.459 122.93 32.459C125.561 32.459 127.151 30.981 127.151 28.867C127.151 27.245 126.284 25.97 123.827 25.188C121.832 24.522 121.485 24.029 121.485 23.334C121.485 22.697 122.005 22.118 122.93 22.118Z" fill="#D1D5DB"/>
<path d="M129.753 20.553H128.308V22.813H129.753V28.085C129.753 30.431 130.505 32.169 133.367 32.169C134.032 32.169 134.784 32.082 135.391 31.908V29.736C134.986 29.852 134.466 29.939 134.003 29.939C132.905 29.939 132.413 29.504 132.413 27.94V22.813H135.304V20.553H132.442V16.875H129.753V20.553Z" fill="#D1D5DB"/>
<path fill-rule="evenodd" clip-rule="evenodd" d="M148.748 26.289C148.748 22.813 146.204 20.177 142.619 20.177C139.15 20.177 136.49 22.726 136.49 26.289C136.49 29.765 139.121 32.459 142.619 32.459C146.175 32.459 148.748 29.678 148.748 26.289ZM146.03 26.289C146.03 28.432 144.643 30.054 142.619 30.054C140.769 30.054 139.207 28.49 139.207 26.289C139.207 24.145 140.566 22.552 142.619 22.552C144.729 22.552 146.03 24.261 146.03 26.289Z" fill="#D1D5DB"/>
<path d="M153.78 26.231C153.78 23.827 154.849 22.639 156.671 22.639C157.117 22.6382 157.562 22.677 158.001 22.755V20.235L157.98 20.2329C157.697 20.2045 157.412 20.176 156.989 20.176C155.456 20.176 154.3 21.191 153.78 22.176H153.722V20.554H151.091V32.024H153.78V26.231Z" fill="#D1D5DB"/>
</g>
<defs>
<clipPath id="clip0_3506_36551">
<rect width="158" height="48" fill="white"/>
</clipPath>
</defs>
</svg>
